<?xml version="1.0" encoding="UTF-8" standalone="no"?>
<svg
   xmlns:dc="http://purl.org/dc/elements/1.1/"
   xmlns:cc="http://creativecommons.org/ns#"
   xmlns:rdf="http://www.w3.org/1999/02/22-rdf-syntax-ns#"
   xmlns:svg="http://www.w3.org/2000/svg"
   xmlns="http://www.w3.org/2000/svg"
   xmlns:sodipodi="http://sodipodi.sourceforge.net/DTD/sodipodi-0.dtd"
   xmlns:inkscape="http://www.inkscape.org/namespaces/inkscape"
   id="Layer_1"
   width="250"
   height="114"
   viewBox="0 0 250 114"
   version="1.1"
   sodipodi:docname="p5jss.svg"
   inkscape:version="0.92.3 (2405546, 2018-03-11)">
  <metadata
     id="metadata11">
    <rdf:RDF>
      <cc:Work
         rdf:about="">
        <dc:format>image/svg+xml</dc:format>
        <dc:type
           rdf:resource="http://purl.org/dc/dcmitype/StillImage" />
        <dc:title></dc:title>
      </cc:Work>
    </rdf:RDF>
  </metadata>
  <defs
     id="defs9" />
  <sodipodi:namedview
     pagecolor="#ffffff"
     bordercolor="#666666"
     borderopacity="1"
     objecttolerance="10"
     gridtolerance="10"
     guidetolerance="10"
     inkscape:pageopacity="0"
     inkscape:pageshadow="2"
     inkscape:window-width="1920"
     inkscape:window-height="1001"
     id="namedview7"
     showgrid="false"
     inkscape:zoom="1.356"
     inkscape:cx="125"
     inkscape:cy="57"
     inkscape:window-x="-9"
     inkscape:window-y="-9"
     inkscape:window-maximized="1"
     inkscape:current-layer="Layer_1" />
  <style
     id="style2">path{fill:#ed225d}.svglink{border:none}</style>
  <path
     d="m 13.304147,29.105927 v 7.998 h 0.359 c 0.715,-1.113 1.65,-2.248 2.805,-3.402 1.153,-1.154 2.567,-2.188 4.239,-3.105 1.671,-0.912 3.561,-1.67 5.671,-2.268 2.107,-0.596 4.477,-0.896 7.103,-0.896 4.06,0 7.8,0.777 11.223,2.328 3.422,1.555 6.368,3.684 8.836,6.389 2.466,2.707 4.376,5.891 5.73,9.551 1.353,3.662 2.03,7.602 2.03,11.82 0,4.218 -0.657,8.178 -1.971,11.879 -1.312,3.701 -3.185,6.924004 -5.611,9.670004 -2.429,2.746 -5.372,4.938 -8.835,6.566 -3.463,1.631 -7.384,2.447 -11.76,2.447 -4.06,0 -7.781,-0.836 -11.163,-2.506 -3.385,-1.672 -5.99,-3.939 -7.82,-6.807 h -0.238 V 115.06493 H -0.42485251 V 29.105927 Z m 33.43,28.414 c 0,-2.229 -0.339,-4.438 -1.015,-6.627 -0.678,-2.188 -1.692,-4.158 -3.045,-5.91 -1.354,-1.748 -3.064,-3.162 -5.134,-4.238 -2.07,-1.074 -4.497,-1.611 -7.282,-1.611 -2.627,0 -4.976,0.557 -7.044,1.672 a 18.075,18.075 0 0 0 -5.313,4.297 18.321,18.321 0 0 0 -3.343,5.971 c -0.758,2.229 -1.134,4.459 -1.134,6.686 0,2.229 0.376,4.438 1.134,6.625 a 18.438,18.438 0 0 0 3.343,5.912 17.214,17.214 0 0 0 5.313,4.236004 c 2.068,1.076 4.417,1.611 7.044,1.611 2.785,0 5.212,-0.555 7.282,-1.67 2.069,-1.115004 3.78,-2.547004 5.134,-4.299004 1.353,-1.75 2.367,-3.74 3.045,-5.969 a 22.937,22.937 0 0 0 1.015,-6.686 z m 139.649003,-31.152 v 63.506004 c 0,3.422 -0.279,6.666 -0.836,9.73 -0.559,3.063999 -1.611,5.729999 -3.164,7.999999 -1.551,2.27 -3.662,4.078 -6.328,5.432 -2.668,1.354 -6.148,2.029 -10.447,2.029 a 27.3,27.3 0 0 1 -3.582,-0.238 c -1.193,-0.16 -2.148,-0.32 -2.865,-0.479 l 1.195,-12.178 c 0.637,0.16 1.312,0.279 2.029,0.359 0.717,0.078 1.352,0.119 1.91,0.119 1.67,0 3.023,-0.318 4.059,-0.955 a 6.402,6.402 0 0 0 2.389,-2.626999 c 0.555,-1.115 0.914,-2.408 1.074,-3.881 0.158,-1.473 0.238,-3.043 0.238,-4.715 V 26.367927 Z m 48.83,18.019 c -1.275,-1.672 -3.025,-3.123 -5.254,-4.357 -2.229,-1.234 -4.656,-1.852 -7.283,-1.852 -2.309,0 -4.416,0.479 -6.326,1.434 -1.912,0.953 -2.865,2.547 -2.865,4.775 0,2.228 1.053,3.803 3.162,4.715 2.109,0.916 5.195,1.852 9.254,2.807 2.148,0.479 4.316,1.115 6.506,1.91 2.19,0.795 4.18,1.85 5.971,3.164 a 15.605,15.605 0 0 1 4.357,4.895 c 1.113,1.951 1.672,4.318 1.672,7.104 0,3.504 -0.658,6.469004 -1.971,8.895004 -1.312,2.428 -3.064,4.398 -5.254,5.91 -2.19,1.512 -4.736,2.607 -7.641,3.283 a 39.64,39.64 0 0 1 -9.014,1.014 c -4.459,0 -8.795,-0.816 -13.014,-2.447 -4.219,-1.629 -7.721,-3.959 -10.506,-6.982 l 9.432,-8.836004 c 1.592,2.07 3.66,3.781 6.209,5.133004 2.547,1.354 5.371,2.029 8.477,2.029 1.033,0 2.088,-0.117 3.164,-0.357 a 10.742,10.742 0 0 0 2.984,-1.133 6.202,6.202 0 0 0 2.209,-2.090004 c 0.555,-0.877 0.834,-1.949 0.834,-3.225 0,-2.389 -1.094,-4.098 -3.281,-5.133 -2.191,-1.035 -5.475,-2.07 -9.85,-3.104 a 47.301,47.301 0 0 1 -6.27,-1.852 c -2.029,-0.756 -3.84,-1.75 -5.432,-2.984 a 13.778,13.778 0 0 1 -3.82,-4.598 c -0.955,-1.83 -1.434,-4.098 -1.434,-6.805 0,-3.184 0.656,-5.928 1.971,-8.236 a 16.936,16.936 0 0 1 5.193,-5.674 c 2.148,-1.471 4.576,-2.566 7.283,-3.281 a 32.486,32.486 0 0 1 8.357,-1.076 c 4.137,0 8.178,0.717 12.117,2.148 3.939,1.434 7.062,3.625 9.373,6.568 z m -84.604,29.904004 8.533,-2.576004 1.676,5.156004 -8.498,2.898 5.275,7.48 -4.447,3.226 -5.553,-7.348 -5.408,7.154 -4.319,-3.289 5.275,-7.223 -8.563,-3.09 1.677,-5.160004 8.599,2.771004 v -8.895004 h 5.754 v 8.896004 z m -29.473,-26.980004 c -1.473,-3.301 -3.521,-6.088 -6.148,-8.357 -2.626,-2.268 -5.711,-4 -9.252,-5.193 -3.543,-1.193 -7.384003,-1.791 -11.521003,-1.791 -1.513,0 -3.204,0.082 -5.074,0.238 -1.871,0.162 -3.482,0.439 -4.835,0.838 l 0.835,-18.268 H 119.64515 V 1.8849266 H 71.531147 l -1.433,46.2010004 c 1.271,-0.635 2.725,-1.232 4.357,-1.791 a 66.991,66.991 0 0 1 5.014,-1.49 45.797,45.797 0 0 1 5.254,-1.016 38.588,38.588 0 0 1 5.074,-0.357 c 2.307,0 4.576,0.258 6.805,0.775 2.228,0.518 4.238003,1.434 6.029003,2.746 1.791,1.312 3.242,3.045 4.358,5.193 1.113,2.148 1.671,4.855 1.671,8.119 0,2.547 -0.418,4.836 -1.254,6.865 -0.835,2.027 -1.97,3.721 -3.401,5.072 a 14.723,14.723 0 0 1 -5.016003,3.104004 c -1.91,0.719 -3.939,1.076 -6.089,1.076 -3.819,0 -7.124,-1.016 -9.909,-3.045004 -2.787,-2.029 -4.775,-4.715 -5.97,-8.059 l -0.159,0.059 -10.368,9.715004 c 2.097,3.42 4.8,6.281 8.14,8.553 4.854,3.301 10.823,4.955 17.909,4.955 4.218,0 8.197003,-0.678 11.938003,-2.029 3.74,-1.352 7.004,-3.303 9.79,-5.852 2.785,-2.545 4.994,-5.67 6.627,-9.371004 1.63,-3.701 2.446,-7.898 2.446,-12.596 0.001,-4.298 -0.735,-8.096 -2.208,-11.401 z"
     id="path4"
     inkscape:connector-curvature="0"
     style="fill:#ed225d" />
</svg>
